<svg id="Layer_1" data-name="Layer 1" xmlns="http://www.w3.org/2000/svg" viewBox="0 0 580 331"><defs><style>.cls-1{font-size:244.23px;font-family:Arbotek-LightRounded, Arbotek;font-weight:300;}.cls-1,.cls-2{fill:#8e4444;}</style></defs><text class="cls-1" transform="translate(22.63 278.48) scale(0.91 1)">sünd</text><path class="cls-2" d="M520.21,120.11c-1.2-7.52-2.76-16.82,2.15-23.43,2.27-3.05,5.91-5.05,9.16-6.87a96,96,0,0,1,11.33-5.35c4.46-1.78,9-3.34,13.55-4.9l-3.69-2.1c2.67,7.84,3.37,17,.56,24.9a12.44,12.44,0,0,1-6.86,7.55c-4,1.8-8.44,2.86-12.63,4.06q-7.74,2.22-15.61,4a3,3,0,0,0,1.59,5.79q7.5-1.68,14.91-3.76a111.54,111.54,0,0,0,14.2-4.62,17.7,17.7,0,0,0,9.3-9.17A36.71,36.71,0,0,0,561,92.4a47.31,47.31,0,0,0-2.49-16.53,3,3,0,0,0-3.69-2.1c-8.76,3-17.58,6.06-25.72,10.53-3.92,2.15-8.11,4.59-11,8.12a24,24,0,0,0-4.84,12.33c-.71,5.67.24,11.37,1.13,17,.26,1.6,2.26,2.49,3.7,2.09a3.07,3.07,0,0,0,2.09-3.69Z"/><path class="cls-2" d="M522,120.19c5.89-12.92,19.15-19.86,29-29.68a50.89,50.89,0,0,0,7.73-9.74c2-3.32-3.2-6.34-5.18-3-7.19,12-20.68,18.64-29.87,29.12a42.33,42.33,0,0,0-6.82,10.29,3.08,3.08,0,0,0,1.07,4.11,3,3,0,0,0,4.11-1.08Z"/></svg>
