<svg id="Layer_1" data-name="Layer 1" xmlns="http://www.w3.org/2000/svg" viewBox="0 0 365 320"><defs><style>.cls-1{fill:#8e4444;}</style></defs><path class="cls-1" d="M191.41,132.13c-6.53-2.35-10.7-8.88-14.4-14.41a174.51,174.51,0,0,1-12.45-21.2,77.87,77.87,0,0,1-7.27-22.82c-1.17-8.39-.07-16.71,1.84-24.89,2.07-8.88,4.53-17.68,6.83-26.5a23.4,23.4,0,0,1,.75-2.6c.13-.32,0-.11,0-.05.07-.14.14-.29.22-.43s.38-.6.2-.36.26-.25.26-.27c.16-.44,0,.14,0,0,.06.1-.37.05-.38.07s.21,0,.38.12a9.17,9.17,0,0,1,1.73,1.58,57.27,57.27,0,0,1,6.9,8.69A111.66,111.66,0,0,1,186.15,49.7a245.69,245.69,0,0,1,8.33,23.85,66.72,66.72,0,0,1,1.81,26c-1.08,8.78-3.62,17.37-6.3,25.78q-1,3.21-2.09,6.4a3,3,0,1,0,5.79,1.59c6-18.23,11.78-37.22,7.75-56.53-1.86-8.91-5.26-17.49-8.46-26C190,43,186.83,35.27,182.51,28.14A70.25,70.25,0,0,0,175,18c-2.68-3-6.61-7.16-10.92-4.36a9.1,9.1,0,0,0-3.36,5c-.71,2.17-1.19,4.44-1.76,6.65q-1.86,7.14-3.73,14.27c-2.39,9.19-4.72,18.57-4.46,28.14a72.5,72.5,0,0,0,5.61,25.21,143.8,143.8,0,0,0,12.4,23.31c4.37,6.81,8.82,14.27,15.55,19a23.09,23.09,0,0,0,5.45,2.76,3,3,0,1,0,1.59-5.79Z"/><path class="cls-1" d="M220.29,137.92c.07-11,8.17-19.68,17-25.15a112.88,112.88,0,0,1,15.86-7.84q8.84-3.71,17.94-6.67,4.61-1.5,9.27-2.81c1.44-.41,2.88-.8,4.33-1.18l2.06-.53c.08,0,1.28-.28,1.28-.31a12.41,12.41,0,0,1-1.25-.84l0-.12c0,.17,0,.35,0,.52s-.05.61-.09.91-.12.84-.22,1.39a31,31,0,0,1-.87,3.57,31.43,31.43,0,0,1-2.8,6.51c-4.94,8.8-13.18,15.3-22.31,19.45-12.21,5.55-25.85,7.17-39,8.76a3.1,3.1,0,0,0-3,3c0,1.47,1.38,3.2,3,3,13.21-1.6,26.69-3.18,39.08-8.3,10.82-4.47,20.66-11.63,26.79-21.77a38.15,38.15,0,0,0,5.4-16,6.24,6.24,0,0,0-.81-4.12c-1.32-2-3.64-2.17-5.79-1.68-3.37.76-6.72,1.74-10,2.71q-10,2.94-19.66,6.75A164.6,164.6,0,0,0,238,105.44c-12.2,6.6-23.61,17.67-23.7,32.48,0,3.86,6,3.87,6,0Z"/><path class="cls-1" d="M172.16,152.58c8,4.57,17.33,4.24,26.26,3.71a95.87,95.87,0,0,1,13.45-.2,36.57,36.57,0,0,1,10.63,2.57,43.2,43.2,0,0,1,16.94,13.18,49.75,49.75,0,0,1,9.4,19.65,48.38,48.38,0,0,1,1.19,11.7,59.52,59.52,0,0,1-1.49,12.61,76.44,76.44,0,0,1-10.21,23.94c-9.27,14.59-22.77,26.13-37.6,34.79s-31.43,14.65-48.23,18.79c-4.44,1.09-8.92,2.12-13.43,2.89-4.72.81-9.69,1.24-14.41.19a24.35,24.35,0,0,1-9-3.94,25.59,25.59,0,0,1-3.58-3,36.43,36.43,0,0,1-3.47-3.87c-4.14-5.35-7.09-12.16-9.1-18.85A131.6,131.6,0,0,1,95,241.47a199.44,199.44,0,0,1,3.43-60.78c3.46-16.14,9.55-33.41,24.91-41.78a38.12,38.12,0,0,1,44.55,5.44,38.51,38.51,0,0,1,7.13,8.76c2,3.32,7.15.3,5.18-3a45.21,45.21,0,0,0-19-17.44,44.62,44.62,0,0,0-50.35,8c-6.58,6.37-11,14.59-14,23.13A147,147,0,0,0,90.29,192a207.21,207.21,0,0,0-2.22,32.25,205.14,205.14,0,0,0,2.87,32,89.23,89.23,0,0,0,6.73,22.61c3.21,7,7.72,13.41,13.92,18,7.3,5.46,16.32,6.81,25.21,5.67a176.4,176.4,0,0,0,28-6.37,192.69,192.69,0,0,0,25.82-9.67c16.44-7.56,31.86-18,43.83-31.66,12.25-14,21.1-31.8,21.6-50.65.43-16.51-6.53-33.17-19.34-43.79a43.84,43.84,0,0,0-21.66-10c-9.35-1.32-18.69.59-28.06.09a26.43,26.43,0,0,1-11.77-3.14c-3.37-1.91-6.39,3.27-3,5.18Z"/></svg>
